<svg width="40" height="40" viewBox="0 0 40 40" fill="none" xmlns="http://www.w3.org/2000/svg">
<path fill-rule="evenodd" clip-rule="evenodd" d="M40 36.7798V27.5452C40 25.7716 38.5534 24.325 36.7798 24.325H27.5452C25.7716 24.325 24.325 25.7716 24.325 27.5452V36.7798C24.325 38.5534 25.7716 40 27.5452 40H36.7798C38.5534 40 40 38.5534 40 36.7798ZM3.22021 15.675H12.4548C14.2284 15.675 15.675 14.2284 15.675 12.4548V3.22021C15.675 1.44662 14.2284 0 12.4548 0H3.22021C1.44662 0 0 1.44662 0 3.22021V12.4548C0 14.2284 1.44662 15.675 3.22021 15.675ZM15.675 36.7798V27.5452C15.675 25.7716 14.2284 24.325 12.4548 24.325H3.22021C1.44662 24.325 0 25.7716 0 27.5452V36.7798C0 38.5534 1.44662 40 3.22021 40H12.4548C14.2284 40 15.675 38.5534 15.675 36.7798Z" fill="white"/>
</svg>
