<svg width="123" height="123" viewBox="0 0 123 123" fill="none" xmlns="http://www.w3.org/2000/svg">
<path fill-rule="evenodd" clip-rule="evenodd" d="M123 113.098V84.7015C123 79.2477 118.552 74.7994 113.098 74.7994H84.7015C79.2477 74.7994 74.7993 79.2477 74.7993 84.7015V113.098C74.7993 118.552 79.2477 123 84.7015 123H113.098C118.552 123 123 118.552 123 113.098ZM9.90216 48.2005H38.2985C43.7523 48.2005 48.2007 43.7522 48.2007 38.2984V9.90215C48.2007 4.44835 43.7523 0 38.2985 0H9.90216C4.44835 0 0 4.44835 0 9.90215V38.2984C0 43.7522 4.44835 48.2005 9.90216 48.2005ZM48.2007 113.098V84.7015C48.2007 79.2477 43.7523 74.7994 38.2985 74.7994H9.90216C4.44835 74.7994 0 79.2477 0 84.7015V113.098C0 118.552 4.44835 123 9.90216 123H38.2985C43.7523 123 48.2007 118.552 48.2007 113.098Z" fill="#45BDAA"/>
</svg>
